<?xml version="1.0" encoding="utf-8"?>
<!-- Generator: Adobe Illustrator 24.0.0, SVG Export Plug-In . SVG Version: 6.00 Build 0)  -->
<svg version="1.1" id="图层_1" xmlns="http://www.w3.org/2000/svg" xmlns:xlink="http://www.w3.org/1999/xlink" x="0px" y="0px"
	 viewBox="0 0 110.5 40" style="enable-background:new 0 0 110.5 40;" xml:space="preserve">
<style type="text/css">
	.st0{fill-rule:evenodd;clip-rule:evenodd;fill:url(#SVGID_1_);}
	.st1{fill-rule:evenodd;clip-rule:evenodd;fill:#1C4DA0;}
	.st2{fill:#3591D0;}
	.st3{fill:#1E4A9E;}
	.st4{font-family:'AlibabaPuHuiTi_2_65_Medium';}
	.st5{font-size:9.3689px;}
	.st6{font-size:15.2653px;}
</style>
<g>
	
		<linearGradient id="SVGID_1_" gradientUnits="userSpaceOnUse" x1="1158.8756" y1="-727.311" x2="1148.5383" y2="-727.311" gradientTransform="matrix(0 -1 1 0 748.8881 1176.1707)">
		<stop  offset="0" style="stop-color:#646565"/>
		<stop  offset="0.3564" style="stop-color:#4D4D4C"/>
		<stop  offset="1" style="stop-color:#1E1F1F"/>
	</linearGradient>
	<path class="st0" d="M19.87,18.22c1.08-1.18,2.1-1.15,3.31-0.28c1.02,0.73,2.19,1.25,3.31,1.84c0.44,0.23,0.64,0.53,0.62,1.03
		c-0.03,1.08-0.02,2.16,0,3.24c0.01,0.36-0.1,0.58-0.43,0.76c-1.56,0.88-3.11,1.78-4.65,2.69c-0.32,0.19-0.55,0.17-0.86-0.01
		c-1.54-0.91-3.1-1.8-4.65-2.69c-0.27-0.15-0.48-0.29-0.47-0.66c0.03-0.76,0.02-1.52,0-2.29c-0.01-0.37,0.07-0.53,0.45-0.29
		c0.35,0.22,0.71,0.43,1.08,0.63c0.25,0.13,0.37,0.33,0.32,0.6c-0.1,0.54,0.2,0.79,0.63,1.02c0.91,0.49,1.8,1.02,2.68,1.55
		c0.29,0.17,0.51,0.18,0.8,0c0.92-0.56,1.86-1.1,2.81-1.62c0.34-0.19,0.43-0.42,0.49-0.81c0.18-1.15-0.23-1.84-1.3-2.35
		C22.58,19.89,21.25,19.01,19.87,18.22z"/>
	<path class="st1" d="M16.1,18.06c-0.48-1.68,0.39-2.51,1.81-3.15c1.11-0.5,2.15-1.19,3.2-1.83c0.34-0.21,0.6-0.2,0.94,0
		c1.54,0.91,3.1,1.8,4.66,2.69c0.26,0.15,0.4,0.31,0.4,0.63c-0.02,0.74-0.01,1.47,0,2.21c0,0.37-0.1,0.54-0.46,0.3
		c-0.61-0.41-1.56-0.53-1.35-1.63c0.04-0.23-0.21-0.31-0.37-0.41c-0.98-0.57-1.96-1.12-2.93-1.7c-0.3-0.18-0.53-0.16-0.81,0.01
		c-0.93,0.55-1.86,1.1-2.81,1.62c-0.35,0.19-0.44,0.44-0.48,0.82c-0.13,1.13,0.23,1.85,1.33,2.36c1.27,0.58,2.43,1.39,3.65,2.08
		c0.4,0.23,0.51,0.33,0.04,0.67c-0.88,0.65-1.61,0.71-2.55,0.04c-1.14-0.81-2.39-1.45-3.62-2.12c-0.48-0.26-0.67-0.57-0.62-1.11
		C16.13,19.05,16.1,18.56,16.1,18.06z"/>
	<polygon class="st2" points="21.86,3.2 7.21,11.69 7.21,13.36 15.05,17.71 15.05,14.59 11.57,12.81 11.56,12.66 21.87,6.68 
		33.49,13.52 33.49,23.52 36.17,24.99 36.17,11.7 	"/>
	<polygon class="st3" points="21.86,36.8 36.17,28.31 36.17,26.64 28.33,22.29 28.33,25.41 31.82,27.19 31.83,27.34 21.87,33.32 
		9.9,26.48 9.88,16.13 7.21,14.67 7.22,28.3 	"/>
</g>
<g>
	<text transform="matrix(1 0 0 1 42.0786 31.791)" class="st4 st5">Elliptic  curve</text>
	<text transform="matrix(1 0 0 1 42.0786 19.355)" class="st4 st6">椭圆曲线</text>
</g>
</svg>
